<svg width="24" height="18" viewBox="0 0 24 18" fill="none" xmlns="http://www.w3.org/2000/svg">
<path d="M20.8184 17.9291C20.3682 17.9383 19.926 17.8095 19.5512 17.56C19.2723 17.3777 18.9462 17.2806 18.613 17.2806C18.2797 17.2806 17.9537 17.3777 17.6747 17.56C17.2961 17.801 16.8566 17.9291 16.4077 17.9291C15.9589 17.9291 15.5194 17.801 15.1408 17.56C14.8618 17.3775 14.5357 17.2803 14.2023 17.2803C13.869 17.2803 13.5429 17.3775 13.2639 17.56C12.8853 17.801 12.4458 17.9291 11.9969 17.9291C11.5481 17.9291 11.1086 17.801 10.7299 17.56C10.4512 17.3776 10.1253 17.2805 9.79216 17.2805C9.45904 17.2805 9.13315 17.3776 8.85438 17.56C8.5111 17.7881 8.1105 17.9149 7.69848 17.9258L7.67578 17.2772C7.98012 17.27 8.27566 17.1737 8.52584 17.0002C8.90435 16.7592 9.34376 16.6312 9.79248 16.6312C10.2412 16.6312 10.6806 16.7592 11.0591 17.0002C11.3381 17.1826 11.6641 17.2797 11.9974 17.2797C12.3307 17.2797 12.6567 17.1826 12.9357 17.0002C13.3143 16.759 13.754 16.6309 14.203 16.6309C14.6519 16.6309 15.0916 16.759 15.4703 17.0002C15.7492 17.1826 16.0753 17.2797 16.4085 17.2797C16.7418 17.2797 17.0679 17.1826 17.3468 17.0002C17.7255 16.7592 18.165 16.6312 18.6138 16.6312C19.0626 16.6312 19.5021 16.7592 19.8808 17.0002C20.1604 17.183 20.4872 17.2804 20.8213 17.2804C21.1554 17.2804 21.4822 17.183 21.7618 17.0002C22.1362 16.7514 22.5776 16.6229 23.027 16.6318V17.2804C22.6924 17.2713 22.3636 17.3691 22.0884 17.5597C21.7127 17.8095 21.2695 17.9384 20.8184 17.9291Z" fill="white"/>
<path d="M3.17806 17.9307C2.728 17.94 2.28589 17.8112 1.91125 17.5616C1.63613 17.3708 1.30731 17.2729 0.972656 17.282V16.6334C1.42283 16.624 1.86505 16.7528 2.23979 17.0024C2.51477 17.1932 2.8435 17.2912 3.17806 17.282C3.51277 17.2912 3.84165 17.1931 4.11666 17.0021C4.4906 16.7526 4.93209 16.6239 5.38152 16.6334C5.82005 16.6235 6.25133 16.7464 6.61882 16.9859L6.29157 17.5457C6.02314 17.365 5.70495 17.2728 5.38152 17.282C5.04819 17.273 4.72071 17.3707 4.44682 17.5609C4.07175 17.8112 3.62887 17.9403 3.17806 17.9307Z" fill="white"/>
<path d="M20.819 15.6591C20.3686 15.6683 19.9261 15.5395 19.5509 15.29C19.2717 15.1076 18.9454 15.0104 18.6118 15.0104C18.2783 15.0104 17.952 15.1076 17.6728 15.29C17.2942 15.531 16.8547 15.659 16.406 15.659C15.9572 15.659 15.5177 15.531 15.1391 15.29C14.8603 15.1077 14.5344 15.0106 14.2012 15.0106C13.868 15.0106 13.5421 15.1077 13.2633 15.29C12.8847 15.5311 12.4452 15.6591 11.9964 15.6591C11.5477 15.6591 11.1082 15.5311 10.7296 15.29C10.4508 15.1077 10.1249 15.0106 9.79168 15.0106C9.45852 15.0106 9.13258 15.1077 8.85374 15.29C8.47912 15.5397 8.037 15.6685 7.58693 15.6591C7.13686 15.6685 6.69474 15.5397 6.32012 15.29C6.04524 15.0993 5.71662 15.0013 5.38217 15.0105C5.04783 15.0014 4.71932 15.0993 4.44455 15.29C4.07052 15.5394 3.62911 15.6682 3.17968 15.6591C2.72951 15.6685 2.28729 15.5397 1.91255 15.29C1.63712 15.0989 1.30776 15.0009 0.972656 15.0105V14.3618C1.42272 14.3525 1.86483 14.4813 2.23947 14.7309C2.51459 14.9216 2.84341 15.0196 3.17806 15.0105C3.51241 15.0196 3.84091 14.9216 4.11568 14.7309C4.48971 14.4816 4.93113 14.3528 5.38055 14.3618C5.83095 14.3523 6.27345 14.4811 6.64833 14.7309C6.92331 14.9217 7.25205 15.0196 7.5866 15.0105C7.92116 15.0196 8.2499 14.9217 8.52487 14.7309C8.90341 14.4898 9.34289 14.3617 9.79168 14.3617C10.2405 14.3617 10.68 14.4898 11.0585 14.7309C11.3374 14.9133 11.6634 15.0104 11.9966 15.0104C12.3298 15.0104 12.6558 14.9133 12.9347 14.7309C13.3133 14.4898 13.7527 14.3617 14.2015 14.3617C14.6503 14.3617 15.0898 14.4898 15.4683 14.7309C15.7472 14.9133 16.0732 15.0104 16.4064 15.0104C16.7397 15.0104 17.0657 14.9133 17.3446 14.7309C17.7235 14.4899 18.1633 14.3619 18.6123 14.3619C19.0614 14.3619 19.5012 14.4899 19.8801 14.7309C20.1595 14.9132 20.4859 15.0103 20.8195 15.0103C21.1531 15.0103 21.4795 14.9132 21.7589 14.7309C22.134 14.4815 22.5764 14.3527 23.0267 14.3618V15.0105C22.6914 15.001 22.3619 15.0989 22.0862 15.29C21.7113 15.5393 21.2692 15.6681 20.819 15.6591Z" fill="white"/>
<path d="M20.8179 13.3887C20.3678 13.3979 19.9256 13.2691 19.5508 13.0197C19.2757 12.8289 18.9469 12.731 18.6122 12.7401C18.3666 12.7317 18.1227 12.784 17.9023 12.8925L17.6162 12.3087C17.9258 12.157 18.2675 12.0821 18.6122 12.0905C19.0629 12.0813 19.5056 12.2104 19.8806 12.4605C20.1603 12.6433 20.4871 12.7407 20.8212 12.7407C21.1553 12.7407 21.4821 12.6433 21.7617 12.4605C22.1359 12.2116 22.5772 12.0828 23.0266 12.0914V12.7401C22.692 12.7309 22.3632 12.8288 22.088 13.0193C21.7123 13.2692 21.2691 13.3981 20.8179 13.3887Z" fill="white"/>
<path d="M16.404 13.3896C15.9546 13.399 15.5131 13.2703 15.1391 13.0208C14.8602 12.8384 14.5341 12.7412 14.2007 12.7412C13.8674 12.7412 13.5412 12.8384 13.2623 13.0208C12.8837 13.2619 12.4441 13.3899 11.9953 13.3899C11.5465 13.3899 11.1069 13.2619 10.7283 13.0208C10.4494 12.8385 10.1233 12.7413 9.79006 12.7413C9.45679 12.7413 9.13074 12.8385 8.85179 13.0208C8.47723 13.27 8.03542 13.3987 7.58563 13.3896C7.13557 13.3989 6.69346 13.2701 6.31882 13.0205C6.04369 12.8298 5.71487 12.7318 5.38022 12.7409C5.0469 12.7319 4.71941 12.8297 4.44552 13.0198C4.07082 13.2699 3.62843 13.3989 3.17806 13.3896C2.728 13.3989 2.28589 13.2701 1.91125 13.0205C1.63613 12.8298 1.30731 12.7318 0.972656 12.7409V12.0923C1.42283 12.0829 1.86505 12.2117 2.23979 12.4614C2.51477 12.6522 2.8435 12.7501 3.17806 12.7409C3.51277 12.7501 3.84165 12.6521 4.11666 12.461C4.4906 12.2116 4.93209 12.0828 5.38152 12.0923C5.83158 12.083 6.27368 12.2118 6.64833 12.4614C6.92331 12.6522 7.25205 12.7501 7.5866 12.7409C7.92125 12.75 8.25007 12.6521 8.5252 12.4614C8.90381 12.2203 9.34334 12.0923 9.79217 12.0923C10.241 12.0923 10.6805 12.2203 11.0591 12.4614C11.3381 12.6437 11.6641 12.7408 11.9974 12.7408C12.3307 12.7408 12.6567 12.6437 12.9357 12.4614C13.3144 12.2201 13.754 12.092 14.203 12.092C14.652 12.092 15.0916 12.2201 15.4703 12.4614C15.756 12.6535 16.0948 12.7512 16.439 12.7406C16.4641 12.7409 16.4891 12.7396 16.514 12.7367L16.6002 13.3795C16.5351 13.3871 16.4696 13.3905 16.404 13.3896Z" fill="white"/>
<path d="M20.819 11.1181C20.3686 11.1273 19.9261 10.9985 19.5509 10.749C19.2717 10.5666 18.9454 10.4694 18.6118 10.4694C18.2783 10.4694 17.952 10.5666 17.6728 10.749C17.2942 10.99 16.8547 11.118 16.406 11.118C15.9572 11.118 15.5177 10.99 15.1391 10.749C14.8603 10.5667 14.5344 10.4696 14.2012 10.4696C13.868 10.4696 13.5421 10.5667 13.2633 10.749C12.8847 10.9901 12.4452 11.1181 11.9964 11.1181C11.5477 11.1181 11.1082 10.9901 10.7296 10.749C10.4508 10.5667 10.1249 10.4696 9.79168 10.4696C9.45852 10.4696 9.13258 10.5667 8.85374 10.749C8.47912 10.9986 8.037 11.1275 7.58693 11.1181C7.13686 11.1275 6.69474 10.9986 6.32012 10.749C6.04524 10.5583 5.71662 10.4603 5.38217 10.4695C5.04783 10.4604 4.71932 10.5583 4.44455 10.749C4.07052 10.9984 3.62911 11.1272 3.17968 11.1181C2.72951 11.1275 2.28729 10.9986 1.91255 10.749C1.63712 10.5579 1.30776 10.4599 0.972656 10.4695V9.82081C1.42272 9.81151 1.86483 9.94031 2.23947 10.1899C2.51459 10.3806 2.84341 10.4786 3.17806 10.4695C3.51241 10.4785 3.84091 10.3806 4.11568 10.1899C4.48971 9.94056 4.93113 9.81176 5.38055 9.82081C5.83095 9.81124 6.27345 9.94006 6.64833 10.1899C6.92331 10.3807 7.25205 10.4786 7.5866 10.4695C7.92116 10.4786 8.2499 10.3807 8.52487 10.1899C8.90341 9.9488 9.34289 9.82073 9.79168 9.82073C10.2405 9.82073 10.68 9.9488 11.0585 10.1899C11.3374 10.3723 11.6634 10.4694 11.9966 10.4694C12.3298 10.4694 12.6558 10.3723 12.9347 10.1899C13.3133 9.9488 13.7527 9.82073 14.2015 9.82073C14.6503 9.82073 15.0898 9.9488 15.4683 10.1899C15.7472 10.3723 16.0732 10.4694 16.4064 10.4694C16.7397 10.4694 17.0657 10.3723 17.3446 10.1899C17.7235 9.94889 18.1633 9.82089 18.6123 9.82089C19.0614 9.82089 19.5012 9.94889 19.8801 10.1899C20.1595 10.3722 20.4859 10.4693 20.8195 10.4693C21.1531 10.4693 21.4795 10.3722 21.7589 10.1899C22.134 9.94046 22.5764 9.81168 23.0267 9.82081V10.4695C22.6914 10.46 22.3619 10.5579 22.0862 10.749C21.7113 10.9983 21.2692 11.1271 20.819 11.1181Z" fill="white"/>
<path d="M16.1977 10.8438L15.5857 10.6291C15.7433 10.1762 15.8077 9.69619 15.775 9.2178C15.7423 8.73942 15.6131 8.2726 15.3953 7.84542L13.1675 3.48294C13.1455 3.43986 13.1335 3.3924 13.1322 3.34405C13.1309 3.29569 13.1404 3.24766 13.1601 3.20348C13.1798 3.15929 13.2091 3.12007 13.2459 3.08868C13.2827 3.05729 13.3261 3.03453 13.3728 3.02207L17.8125 1.83829C17.9572 1.80045 18.0811 1.70702 18.1572 1.57831C18.2333 1.4496 18.2556 1.29603 18.2191 1.15101C18.1826 1.00599 18.0903 0.881258 17.9622 0.803946C17.8342 0.726633 17.6809 0.702998 17.5355 0.738181L12.1621 2.0225C12.0473 2.04965 11.9402 2.10287 11.8492 2.17805C11.7582 2.25323 11.6857 2.34835 11.6374 2.45604C11.5891 2.56372 11.5662 2.68109 11.5705 2.79905C11.5748 2.917 11.6063 3.03237 11.6623 3.13623L13.258 6.10056C13.2985 6.1759 13.3076 6.26418 13.2833 6.34618C13.259 6.42818 13.2033 6.49726 13.1283 6.53839L11.0688 7.67353L10.7559 7.10531L12.5338 6.12521L11.0919 3.44369C10.9887 3.25227 10.931 3.03968 10.9231 2.82237C10.9152 2.60506 10.9574 2.38886 11.0465 2.19047C11.1355 1.99209 11.269 1.81683 11.4366 1.67827C11.6041 1.53971 11.8014 1.44154 12.0129 1.39137L17.3838 0.10737C17.6964 0.0283639 18.0277 0.0768013 18.3046 0.242026C18.5816 0.40725 18.7816 0.675728 18.8606 0.988397C18.9396 1.30107 18.8911 1.63231 18.7259 1.90927C18.5607 2.18622 18.2922 2.3862 17.9795 2.46521L13.9274 3.54521L15.9733 7.54996C16.2309 8.05548 16.3836 8.60788 16.4221 9.17394C16.4607 9.74 16.3844 10.308 16.1977 10.8438Z" fill="white"/>
<path d="M9.62192 7.73451L5.68066 9.90625L5.99355 10.4741L9.93481 8.30233L9.62192 7.73451Z" fill="white"/>
<path d="M19.1356 8.68517C18.6545 8.68517 18.1842 8.54252 17.7842 8.27524C17.3842 8.00796 17.0724 7.62806 16.8883 7.1836C16.7042 6.73913 16.656 6.25005 16.7499 5.7782C16.8437 5.30636 17.0754 4.87294 17.4156 4.53276C17.7557 4.19257 18.1892 3.96091 18.661 3.86705C19.1329 3.7732 19.6219 3.82137 20.0664 4.00547C20.5109 4.18958 20.8908 4.50135 21.158 4.90136C21.4253 5.30137 21.568 5.77165 21.568 6.25274C21.5673 6.89765 21.3108 7.51595 20.8548 7.97197C20.3988 8.428 19.7805 8.68449 19.1356 8.68517ZM19.1356 4.46896C18.7828 4.46896 18.4379 4.57358 18.1445 4.76958C17.8512 4.96559 17.6226 5.24418 17.4876 5.57012C17.3525 5.89606 17.3172 6.25472 17.386 6.60074C17.4549 6.94676 17.6248 7.2646 17.8742 7.51407C18.1237 7.76354 18.4415 7.93342 18.7876 8.00225C19.1336 8.07108 19.4922 8.03575 19.8182 7.90074C20.1441 7.76573 20.4227 7.5371 20.6187 7.24376C20.8147 6.95042 20.9193 6.60554 20.9193 6.25274C20.9187 5.77984 20.7306 5.32648 20.3962 4.99208C20.0618 4.65769 19.6085 4.46956 19.1356 4.46896Z" fill="white"/>
</svg>
